# AST/ASF file generated using VICON BodyLanguage
# -----------------------------------------------
:version 1.10
:name VICON
:units
  mass 1.0
  length 0.45
  angle deg
:documentation
   .ast/.asf automatically generated from VICON data using
   VICON BodyBuilder and BodyLanguage model FoxedUp or BRILLIANT.MOD
:root
   order TX TY TZ RX RY RZ
   axis XYZ
   position 0 0 0  
   orientation 0 0 0 
:bonedata
  begin
     id 1 
     name lhipjoint
     direction 0.707368 -0.647095 0.284426 
     length 2.60678 
     axis 0 0 0  XYZ
  end
  begin
     id 2 
     name lfemur
     direction 0.34202 -0.939693 0  
     length 6.63812  
     axis 0 0 20  XYZ
    dof rx ry rz
    limits (-160.0 20.0)
           (-70.0 70.0)
           (-60.0 70.0)
  end
  begin
     id 3 
     name ltibia
     direction 0.34202 -0.939693 0   
     length 7.51178   
     axis 0 0 20   XYZ
    dof rx
    limits (-10.0 170.0)
  end
  begin
     id 4 
     name lfoot
     direction 0.121251 -0.333133 0.935051   
     length 1.83716   
     axis -90 7.62852e-016 20   XYZ
    dof rx rz
    limits (-45.0 90.0)
           (-70.0 20.0)
  end
  begin
     id 5 
     name ltoes
     direction 1.53611e-011 -4.21962e-011 1   
     length 0.916133   
     axis -90 7.62852e-016 20   XYZ
    dof rx
    limits (-90.0 20.0)
  end
  begin
     id 6 
     name rhipjoint
     direction -0.692419 -0.660507 0.290321   
     length 2.55385  
     axis 0 0 0  XYZ 
  end
  begin
     id 7 
     name rfemur
     direction -0.34202 -0.939693 0   
     length 7.29079   
     axis 0 0 -20   XYZ
    dof rx ry rz
    limits (-160.0 20.0)
           (-70.0 70.0)
           (-70.0 60.0)
  end
  begin
     id 8 
     name rtibia
     direction -0.34202 -0.939693 0   
     length 7.47143   
     axis 0 0 -20   XYZ
    dof rx
    limits (-10.0 170.0)
 end
 begin
     id 9 
     name rfoot
     direction -0.119907 -0.329441 0.936532   
     length 1.79439  
     axis -90 -7.62852e-016 -20   XYZ
    dof rx rz
    limits (-45.0 90.0)
           (-20.0 70.0)
  end
  begin
     id 10 
     name rtoes
     direction -1.53571e-011 -4.21961e-011 1   
     length 0.896039   
     axis -90 -7.62852e-016 -20   XYZ
    dof rx
    limits (-90.0 20.0)
  end
  begin
     id 11 
     name lowerback
     direction 0.0367721 0.992912 -0.113016   
     length 1.73542   
     axis 0 0 0   XYZ
    dof rx ry rz
    limits (-20.0 45.0)
           (-30.0 30.0)
           (-30.0 30.0)
  end
  begin
     id 12 
     name upperback
     direction -0.000314626 0.990678 0.136227   
     length 1.7514   
     axis 0 0 0   XYZ
    dof rx ry rz
    limits (-20.0 45.0)
           (-30.0 30.0)
           (-30.0 30.0)
  end
  begin
     id 13 
     name thorax
     direction -0.0226159 0.981151 0.191917   
     length 1.71471   
     axis 0 0 0   XYZ
    dof rx ry rz
    limits (-20.0 45.0)
           (-30.0 30.0)
           (-30.0 30.0)
  end
  begin
     id 14 
     name lowerneck
     direction 0.0219333 0.998071 0.0580739   
     length 1.65882   
     axis 0 0 0   XYZ
    dof rx ry rz
    limits (-20.0 45.0)
           (-30.0 30.0)
           (-30.0 30.0)
  end
  begin
     id 15 
     name upperneck
     direction 0.0384529 0.980058 -0.194957   
     length 1.6612   
     axis 0 0 0   XYZ
    dof rx ry rz
    limits (-20.0 45.0)
           (-30.0 30.0)
           (-30.0 30.0)
  end
  begin
     id 16
     name head
     direction 0.00592123 0.997421 -0.0715234  
     length 1.68077  
     axis 0 0 0   XYZ
    dof rx ry rz
    limits (-20.0 45.0)
           (-30.0 30.0)
           (-30.0 30.0)
  end
  begin
     id 17 
     name lclavicle
     direction 0.904803 0.417826 0.0821728  
     length 3.42227  
     axis 0 0 0   XYZ
    dof ry rz
    limits (-20.0 10.0)
           (0.0 20.0)
  end
  begin
     id 18 
     name lhumerus
     direction 1 -4.48965e-011 -2.68786e-027   
     length 5.11878   
     axis -180 -30 -90   XYZ
    dof rx ry rz
    limits (-60.0 90.0)
           (-90.0 90.0)
           (-90.0 90.0)
  end
  begin
     id 19
     name lradius
     direction 1 -4.48965e-011 2.61168e-028   
     length 3.59971   
     axis -180 -30 -90   XYZ
    dof rx
    limits (-10.0 170.0)
  end
  begin
     id 20
     name lwrist
     direction 1 -4.48965e-011 1.58672e-027   
     length 1.79985   
     axis -1.65735e-015 90 90   XYZ
    dof ry
    limits (-180.0 0.0)
 end
  begin
     id 21 
     name lhand
     direction 1 -4.48942e-011 3.17344e-027   
     length 0.62877   
     axis -2.02492e-015 90 90   XYZ
    dof rx rz
    limits (-90.0 90.0)
           (-45.0 45.0)
  end
  begin
     id 22 
     name lfingers
     direction 1 -4.49011e-011 6.34687e-027   
     length 0.506931   
     axis -4.04985e-015 90 90   XYZ
    dof rx
    limits (0.0 90.0)
  end
  begin
     id 23
     name lthumb
     direction 0.707107 -6.34982e-011 0.707107   
     length 0.727854   
     axis -90 45 2.85299e-015   XYZ
    dof rx rz
    limits (-45.0 45.0)
           (-45.0 45.0)
  end
  begin
     id 24 
     name rclavicle
     direction -0.945647 0.32488 0.0143075   
     length 3.52737  
     axis 0 0 0   XYZ 
    dof ry rz
    limits (-10.0 20.0)
           (-20.0 0.0)
  end
  begin
     id 25 
     name rhumerus
     direction -1 -4.48962e-011 1.92182e-027  
     length 5.4902   
     axis -180 30 90   XYZ
    dof rx ry rz
    limits (-90.0 60.0)
           (-90.0 90.0)
           (-90.0 90.0)
  end
  begin
     id 26 
     name rradius
     direction -1 -4.48967e-011 -5.97193e-028   
     length 3.20659   
     axis -180 30 90   XYZ
    dof rx
    limits (-10.0 170.0)
  end
  begin
     id 27 
     name rwrist
     direction -1 -4.48964e-011 1.58672e-027   
     length 1.6033   
     axis -1.65735e-015 -90 -90   XYZ
    dof ry
    limits (-180.0 0.0)
  end
  begin
     id 28
     name rhand
     direction -1 -4.49006e-011 3.17344e-027   
     length 0.691885   
     axis -2.02492e-015 -90 -90   XYZ
    dof rx rz
    limits (-90.0 90.0)
           (-45.0 45.0)
  end
  begin
     id 29
     name rfingers
     direction -1 -4.48908e-011 6.34687e-027   
     length 0.557815   
     axis -4.04985e-015 -90 -90   XYZ
    dof rx
    limits (0.0 90.0)
  end
  begin
     id 30
     name rthumb
     direction -0.707107 -6.34999e-011 0.707107   
     length 0.800915   
     axis -90 -45 -2.85299e-015   XYZ
    dof rx rz
    limits (-45.0 45.0)
           (-45.0 45.0)
  end
:hierarchy
  begin
    root lhipjoint rhipjoint lowerback
    lhipjoint lfemur
    lfemur ltibia
    ltibia lfoot
    lfoot ltoes
    rhipjoint rfemur
    rfemur rtibia
    rtibia rfoot
    rfoot rtoes
    lowerback upperback
    upperback thorax
    thorax lowerneck lclavicle rclavicle
    lowerneck upperneck
    upperneck head
    lclavicle lhumerus
    lhumerus lradius
    lradius lwrist
    lwrist lhand lthumb
    lhand lfingers
    rclavicle rhumerus
    rhumerus rradius
    rradius rwrist
    rwrist rhand rthumb
    rhand rfingers
  end

#!OML:ASF I:\Actors\actors\Patient Classification 1\Patient 1\Session 1\Subject1.ASF
:FULLY-SPECIFIED
:DEGREES
1
root 0.189684 17.4838 8.49447 10.743 0.0127776 -10.3679
lowerback -2.95137 1.38265 7.11525
upperback -11.3641 2.11628 0.306783
thorax -10.269 0.406938 -3.75586
lowerneck -2.44489 -16.1066 -13.2049
upperneck 36.8474 -27.9327 12.0362
head 18.0596 -12.573 2.42697
rclavicle 1.17283e-014 -2.22639e-014
rhumerus -61.4185 -43.2022 -47.3893
rradius 25.8263
rwrist 43.6474
rhand 9.11087 -34.1904
rfingers 7.12502
rthumb 34.2826 -60.911
lclavicle 1.17283e-014 -2.22639e-014
lhumerus -54.967 33.0152 51.5091
lradius 24.7023
lwrist -23.2156
lhand -15.3473 -11.8877
lfingers 7.12502
lthumb 10.8298 17.8131
rfemur -2.53034 30.5857 26.4348
rtibia -0.51559
rfoot -14.743 -35.0276
rtoes 7.25434
lfemur 3.74995 -47.6911 -9.04307
ltibia -5.46973
lfoot -27.2424 57.7506
ltoes 19.1869
2
root 0.186216 17.4846 8.49284 10.6757 0.00610115 -10.3857
lowerback -2.81503 1.10446 6.97891
upperback -11.1267 1.77433 0.795546
thorax -10.131 0.288503 -3.13752
lowerneck -2.18295 -16.0191 -13.2524
upperneck 34.3862 -27.0741 12.0092
head 16.4301 -12.3529 2.65658
rclavicle 1.98785e-016 -3.02153e-014
rhumerus -59.8526 -42.7554 -48.2045
rradius 25.7727
rwrist 43.7394
rhand 9.44008 -34.3031
rfingers 7.12502
rthumb 34.5951 -60.9527
lclavicle 1.98785e-016 -3.02153e-014
lhumerus -55.4607 34.2061 51.4184
lradius 24.8171
lwrist -23.2262
lhand -15.4805 -11.7342
lfingers 7.12502
lthumb 10.7013 17.9733
rfemur -2.45825 30.7604 26.5036
rtibia -0.495192
rfoot -14.7979 -35.1509
rtoes 7.75084
lfemur 3.80594 -47.6154 -9.03782
ltibia -5.49073
lfoot -26.7675 57.754
ltoes 18.9315
3
root 0.185907 17.485 8.49115 10.666 -0.00152112 -10.3678
lowerback -2.732 0.823434 6.84577
upperback -10.9064 1.42284 1.27048
thorax -9.97578 0.163028 -2.53596
lowerneck -1.73898 -15.9008 -13.1916
upperneck 31.6708 -26.1885 11.9279
head 14.7663 -12.1195 2.86994
rclavicle 9.93923e-015 -2.3059e-014
rhumerus -58.2466 -42.3009 -49.0063
rradius 25.6034
rwrist 43.9377
rhand 9.48104 -34.3315
rfingers 7.12502
rthumb 34.634 -60.9722
lclavicle 9.93923e-015 -2.3059e-014
lhumerus -55.9951 35.4315 51.2769
lradius 24.9218
lwrist -23.2926
lhand -15.4882 -11.6605
lfingers 7.12502
lthumb 10.6939 18.0473
rfemur -2.46023 30.7342 26.4863
rtibia -0.48914
rfoot -14.7241 -35.1296
rtoes 7.57971
lfemur 3.78233 -47.5613 -9.04459
ltibia -5.46828
lfoot -26.5455 57.717
ltoes 18.7749
4
root 0.185653 17.4854 8.49018 10.6681 0.0149413 -10.3855
lowerback -2.67732 0.523864 6.73276
upperback -10.669 1.04428 1.7674
thorax -9.78091 0.0235796 -1.92224
lowerneck -1.28144 -15.7742 -13.0089
upperneck 28.8634 -25.3119 11.6997
head 13.1737 -11.8757 3.00959
rclavicle -2.56432e-014 2.8625e-014
rhumerus -56.5629 -41.8203 -49.8686
rradius 25.4259
rwrist 44.0973
rhand 9.5205 -34.4272
rfingers 7.12502
rthumb 34.6714 -61.0594
lclavicle -2.56432e-014 2.8625e-014
lhumerus -56.5487 36.7049 51.1152
lradius 25.0538
lwrist -23.359
lhand -15.4393 -11.5702
lfingers 7.12502
lthumb 10.741 18.1352
rfemur -2.3707 31.1364 26.5572
rtibia -0.556155
rfoot -14.9255 -35.5012
rtoes 7.86973
lfemur 3.76385 -47.5455 -8.99994
ltibia -5.4718
lfoot -26.4692 57.6823
ltoes 18.6989
5
root 0.180995 17.4895 8.49805 10.8015 0.0334493 -10.2697
lowerback -2.87328 0.0305229 6.28856
upperback -10.3264 0.384402 2.53431
thorax -9.32874 -0.206846 -0.82701
lowerneck 0.73996 -15.4744 -12.3796
upperneck 22.3814 -23.7432 11.4138
head 9.8673 -11.4632 3.39764
rclavicle 3.97569e-016 -2.74323e-014
rhumerus -54.0355 -41.146 -51.026
rradius 24.9666
rwrist 44.36
rhand 9.45871 -34.5153
rfingers 7.12502
rthumb 34.6128 -61.1609
lclavicle 3.97569e-016 -2.74323e-014
lhumerus -57.3908 38.6173 50.936
lradius 25.3146
lwrist -23.2004
lhand -15.4885 -10.9127
lfingers 7.12502
lthumb 10.6935 18.7952
rfemur -2.6418 30.8629 26.3193
rtibia -0.397872
rfoot -14.956 -35.2313
rtoes 8.50586
lfemur 3.59085 -47.7218 -8.99429
ltibia -5.47131
lfoot -26.5626 57.8555
ltoes 18.6004
6
root 0.173521 17.4973 8.51342 11.0976 0.0467696 -9.97815
lowerback -3.308 -0.517921 5.57772
upperback -10.0254 -0.374084 3.31055
thorax -8.758 -0.471241 0.415598
lowerneck -1.08247 -15.1712 -13.8338
upperneck 23.1113 -23.0978 11.2711
head 10.5447 -11.1633 3.45684
rclavicle 9.0447e-015 2.98177e-014
rhumerus -51.4751 -40.5347 -52.0253
rradius 24.2373
rwrist 44.72
rhand 9.18712 -34.4799
rfingers 7.12502
rthumb 34.355 -61.1842
lclavicle 9.0447e-015 2.98177e-014
lhumerus -58.2467 40.4692 50.8622
lradius 25.6754
lwrist -22.7514
lhand -15.6294 -9.70163
lfingers 7.12502
lthumb 10.5576 20.0132
rfemur -3.81925 27.8211 25.52
rtibia 0.491581
rfoot -14.0704 -32.4434
rtoes 7.5145
lfemur 3.20172 -48.1502 -9.04716
ltibia -5.42439
lfoot -26.9387 58.23
ltoes 18.6963
7
root 0.169938 17.5017 8.52054 11.251 0.057465 -9.83
lowerback -3.20473 -0.476118 5.48416
upperback -10.3194 -0.301436 3.20246
thorax -9.14486 -0.442341 0.360268
lowerneck -0.761255 -15.1928 -14.1079
upperneck 23.3145 -23.1948 11.3059
head 10.6171 -11.24 3.51093
rclavicle -6.43565e-015 4.63168e-014
rhumerus -52.0856 -40.4431 -51.5082
rradius 24.0754
rwrist 44.6502
rhand 9.06282 -34.4175
rfingers 7.12502
rthumb 34.2369 -61.1483
lclavicle -6.43565e-015 4.63168e-014
lhumerus -58.2913 39.729 51.159
lradius 25.8263
lwrist -22.2603
lhand -15.7472 -9.02229
lfingers 7.12502
lthumb 10.444 20.6983
rfemur -3.9751 27.9393 25.2806
rtibia 0.475384
rfoot -14.1467 -32.5789
rtoes 8.26682
lfemur 2.99075 -48.3709 -9.05575
ltibia -5.4024
lfoot -27.1391 58.3934
ltoes 18.8516
8
root 0.169856 17.502 8.52014 11.2471 0.0582075 -9.82664
lowerback -3.57065 -0.511604 5.39609
upperback -10.0163 -0.392268 3.29124
thorax -8.58972 -0.464233 0.491421
lowerneck -1.10285 -15.2224 -14.0743
upperneck 23.1806 -23.1709 11.3047
head 10.6219 -11.2088 3.48136
rclavicle 1.66482e-014 -8.94531e-015
rhumerus -51.4765 -40.7503 -51.7725
rradius 24.0032
rwrist 44.9102
rhand 9.06314 -34.369
rfingers 7.12502
rthumb 34.2372 -61.0997
lclavicle 1.66482e-014 -8.94531e-015
lhumerus -57.9098 40.1947 51.3773
lradius 25.7926
lwrist -22.2975
lhand -15.8126 -8.94526
lfingers 7.12502
lthumb 10.3809 20.7785
rfemur -3.99341 27.9094 25.2791
rtibia 0.514011
rfoot -14.1256 -32.5743
rtoes 8.21893
lfemur 2.98637 -48.3214 -9.04654
ltibia -5.42172
lfoot -27.1044 58.3518
ltoes 18.8813
9
root 0.169581 17.502 8.51963 11.2467 0.0646848 -9.81936
lowerback -3.57141 -0.514482 5.39896
upperback -9.99207 -0.397067 3.29807
thorax -8.56234 -0.465834 0.496479
lowerneck -1.23725 -15.2475 -14.0659
upperneck 23.2971 -23.1848 11.2101
head 10.6781 -11.2122 3.43226
rclavicle 2.51214e-014 5.06901e-015
rhumerus -51.4175 -40.7107 -51.8498
rradius 24.0779
rwrist 44.9658
rhand 9.16706 -34.412
rfingers 7.12502
rthumb 34.3359 -61.1205
lclavicle 2.51214e-014 5.06901e-015
lhumerus -57.8676 40.2559 51.3669
lradius 25.767
lwrist -22.2816
lhand -15.8731 -8.91781
lfingers 7.12502
lthumb 10.3226 20.8089
rfemur -4.01059 27.8781 25.2699
rtibia 0.540037
rfoot -14.1101 -32.5687
rtoes 8.21005
lfemur 2.965 -48.2527 -9.03381
ltibia -5.43408
lfoot -27.0742 58.3
ltoes 18.8695
